<svg xmlns="http://www.w3.org/2000/svg" width="14" height="14" class="icon" viewBox="0 0 1026 1024"><path fill="#333" d="M931.571 1023.944h-290.1c-51.601 0-93.398-65.629-93.398-117.23V641.506c0-51.572 41.797-93.403 93.398-93.403H931.57c51.538 0 93.398 41.832 93.398 93.403v289.04c.002 51.6-41.86 93.398-93.397 93.398zm45.42-379.074c0-26.33-21.363-47.663-47.663-47.663H643.393c-26.295 0-47.662 21.334-47.662 47.663v285.934c0 26.295 21.367 47.658 47.662 47.658h285.935c26.3 0 47.662-21.363 47.662-47.658V644.87zm-45.42-168.965h-290.1c-51.601 0-93.398-65.658-93.398-117.259V93.433C548.073 41.866 589.87 0 641.47 0H931.57c51.538 0 93.398 41.866 93.398 93.433v289.044c.002 51.597-41.86 93.428-93.397 93.428zm45.42-379.11c0-26.298-21.363-47.661-47.663-47.661H643.393c-26.295 0-47.662 21.363-47.662 47.661v285.936c0 26.329 21.367 47.662 47.662 47.662h285.935c26.3 0 47.662-21.333 47.662-47.662V96.795zm-593.493 927.149H93.434C41.797 1023.944 0 958.315 0 906.714V641.506c0-51.572 41.797-93.403 93.434-93.403h290.064c51.573 0 93.434 41.832 93.434 93.403v289.04c-.03 51.6-41.861 93.398-93.434 93.398zm45.42-379.074c0-26.33-21.33-47.663-47.658-47.663H95.325c-26.3 0-47.662 21.334-47.662 47.663v285.934c0 26.295 21.362 47.658 47.662 47.658H381.26c26.329 0 47.658-21.363 47.658-47.658V644.87zm-45.42-168.965H93.434C41.797 475.905 0 410.247 0 358.646V93.433C0 41.866 41.797 0 93.434 0h290.064c51.573 0 93.434 41.832 93.434 93.433v289.044c-.03 51.597-41.861 93.428-93.434 93.428zm45.42-379.11c0-26.298-21.33-47.661-47.658-47.661H95.325c-26.3 0-47.662 21.363-47.662 47.661v285.936c0 26.329 21.362 47.662 47.662 47.662H381.26c26.329 0 47.658-21.333 47.658-47.662V96.795zm0 0"/></svg>