<svg xmlns="http://www.w3.org/2000/svg" width="14" height="14" viewBox="0 0 12 12"><g clip-path="url(#a)"><path fill="#FF7D00" fill-rule="evenodd" d="M3.75 1.953c0-.112.09-.203.203-.203h6.094c.112 0 .203.09.203.203v6.094c0 .112-.09.203-.203.203H9.25V3.953c0-.664-.539-1.203-1.203-1.203H3.75v-.797Zm-1 .797v-.797C2.75 1.29 3.289.75 3.953.75h6.094c.664 0 1.203.539 1.203 1.203v6.094c0 .664-.539 1.203-1.203 1.203H9.25v.797c0 .664-.539 1.203-1.203 1.203H1.953A1.203 1.203 0 0 1 .75 10.047V3.953c0-.664.539-1.203 1.203-1.203h.797Zm-1 1.203c0-.112.09-.203.203-.203h6.094c.112 0 .203.09.203.203v6.094c0 .112-.09.203-.203.203H1.953a.203.203 0 0 1-.203-.203V3.953Z" clip-rule="evenodd"/></g><defs><clipPath id="a"><path fill="#FF7D00" d="M0 0h12v12H0z"/></clipPath></defs></svg>