<svg xmlns="http://www.w3.org/2000/svg" width="128" height="128" class="icon" viewBox="0 0 1024 1024"><path d="M581.19 77.81C579.28 41.19 549.18 12 512 12s-67.27 29.19-69.19 65.81c22.18-6.21 45.28-9.87 69.19-9.87 23.91 0 47.01 3.66 69.19 9.87zM442.45 942.59c0 38.34 31.14 69.41 69.55 69.41s69.55-31.08 69.55-69.41c0-1.52-.35-2.94-.45-4.44H442.9c-.1 1.49-.45 2.92-.45 4.44z"/><path d="M760.45 943.22h-496.9c-68.51 0-127.25-55.03-133.73-125.28-3.42-37.21 6.89-73.53 29.03-102.29 42.03-54.63 65.17-132.11 65.17-218.18v-95.52c0-152.23 88.31-285.77 214.76-324.74 49.26-15.18 97.23-15.15 146.44 0 126.44 38.97 214.76 172.5 214.76 324.74v95.52c0 86.05 23.16 163.54 65.18 218.19 22.14 28.78 32.45 65.1 29.02 102.27-6.46 70.26-65.21 125.29-133.73 125.29zM512 135.91c-16.96 0-34.66 2.8-52.59 8.32-97.31 29.99-165.27 135.97-165.27 257.73v95.52c0 101.44-28.31 194.11-79.72 260.93-11.32 14.72-16.57 33.58-14.78 53.11 3.18 34.53 31.26 61.59 63.91 61.59h496.9c32.66 0 60.74-27.05 63.91-61.59 1.8-19.53-3.44-38.38-14.77-53.11-51.42-66.83-79.73-159.5-79.73-260.93v-95.52c0-121.76-67.97-227.74-165.28-257.74-17.92-5.52-35.61-8.31-52.58-8.31z"/></svg>