<svg xmlns="http://www.w3.org/2000/svg" width="128" height="128" class="icon" viewBox="0 0 1024 1024"><path d="M800 736H448a32 32 0 0 0 0 64h352a32 32 0 0 0 0-64zm0-256H448a32 32 0 0 0 0 64h352a32 32 0 0 0 0-64zm0-256H448a32 32 0 0 0 0 64h352a32 32 0 0 0 0-64zM304 736h-64a32 32 0 0 0 0 64h64a32 32 0 0 0 0-64zm0-256h-64a32 32 0 0 0 0 64h64a32 32 0 0 0 0-64zm0-256h-64a32 32 0 0 0 0 64h64a32 32 0 0 0 0-64z"/><path d="M864 96H160a96 96 0 0 0-96 96v640a96 96 0 0 0 96 96h704a96 96 0 0 0 96-96V192a96 96 0 0 0-96-96zm32 736a32 32 0 0 1-32 32H160a32 32 0 0 1-32-32V672h672a32 32 0 0 0 0-64H128V416h672a32 32 0 0 0 0-64H128V192a32 32 0 0 1 32-32h704a32 32 0 0 1 32 32v640z"/></svg>