<svg xmlns="http://www.w3.org/2000/svg" width="14" height="14" class="mr5 4hnpqv1lf__design-iconfont"><path fill="#0070FF" fill-rule="evenodd" d="M7.389 1.652a.55.55 0 0 0-.778 0L3.48 4.784a.55.55 0 1 0 .778.778l2.195-2.195v5.982a.55.55 0 0 0 1.1 0V3.37l2.191 2.192a.55.55 0 1 0 .778-.778L7.39 1.652ZM2.302 7.233a.55.55 0 0 1 .55.55c0 .677.229 1.588.848 2.32.604.713 1.618 1.306 3.3 1.306 1.682 0 2.696-.593 3.3-1.306.62-.732.848-1.643.848-2.32a.55.55 0 1 1 1.1 0c0 .89-.293 2.066-1.109 3.03-.832.984-2.166 1.696-4.139 1.696-1.973 0-3.307-.712-4.14-1.695a4.797 4.797 0 0 1-1.108-3.031.55.55 0 0 1 .55-.55Z" clip-rule="evenodd"/></svg>