<svg xmlns="http://www.w3.org/2000/svg" width="12" height="12" viewBox="0 0 14 14"><path fill="#0070FF" fill-rule="evenodd" d="M2.625 2.3a.325.325 0 0 0-.325.324v8.75c0 .18.146.325.325.325h8.75c.18 0 .325-.145.325-.325V8.596a.55.55 0 1 1 1.1 0v2.778c0 .787-.638 1.425-1.425 1.425h-8.75A1.425 1.425 0 0 1 1.2 11.374v-8.75c0-.787.638-1.425 1.425-1.425H5.25a.55.55 0 0 1 0 1.1H2.625Zm4.992-.55a.55.55 0 0 1 .55-.55h4.084a.55.55 0 0 1 .55.55v4.083a.55.55 0 1 1-1.1 0V3.076L7.913 6.862a.55.55 0 1 1-.777-.777l3.785-3.786H8.167a.55.55 0 0 1-.55-.55Z" clip-rule="evenodd"/></svg>