<svg xmlns="http://www.w3.org/2000/svg" width="80" height="80" fill="none" viewBox="0 0 33 33"><path fill="#D1D8DF" d="M16.25.317a16 16 0 1 0 0 32 16 16 0 1 0 0-32Z"/><path fill="#fff" d="M16.17 8.088c.324 0 .645.037.963.11.319.073.618.171.897.295.28.124.528.265.746.422.217.158.388.315.51.473.291.36.503.757.637 1.19.134.433.23.847.285 1.24.056.45.084.907.084 1.368.078.056.14.13.184.22.045.078.081.18.11.303.027.124.03.276.008.456a1.57 1.57 0 0 1-.143.566c-.072.14-.153.25-.243.329a.845.845 0 0 1-.318.185c-.056.192-.112.372-.168.54a4.21 4.21 0 0 1-.192.431c-.073.14-.154.25-.243.33-.213.168-.386.312-.52.43s-.223.318-.268.599c-.033.169-.045.34-.033.515.01.174.058.349.142.523.084.175.212.34.385.498.174.158.417.298.73.422.279.113.583.214.913.304.33.09.65.194.963.312.313.118.59.265.83.44.24.174.41.413.51.717.056.18.098.402.126.666.028.265.042.532.042.802s-.02.523-.058.76c-.04.236-.098.416-.177.54-.055.079-.215.157-.477.236a9.82 9.82 0 0 1-.972.228c-.385.073-.815.138-1.29.194a44.937 44.937 0 0 1-2.815.236c-.441.023-.824.034-1.148.034-.324 0-.701-.01-1.131-.033-.43-.023-.874-.054-1.332-.093a53.72 53.72 0 0 1-1.366-.135 31.35 31.35 0 0 1-1.231-.16 15.208 15.208 0 0 1-.939-.17c-.257-.056-.419-.112-.486-.168-.111-.09-.198-.366-.26-.827-.06-.462-.036-1.058.076-1.79.056-.416.22-.734.494-.953.274-.22.592-.394.955-.524s.74-.245 1.131-.346a3.62 3.62 0 0 0 1.04-.439c.234-.146.413-.287.535-.422.123-.135.213-.27.269-.405.055-.135.083-.275.083-.422 0-.146-.005-.31-.016-.49-.023-.258-.112-.464-.269-.616a8.908 8.908 0 0 0-.519-.464 1.011 1.011 0 0 1-.235-.329 5.848 5.848 0 0 1-.184-.43 16.054 16.054 0 0 1-.167-.54.766.766 0 0 1-.235-.119 1.537 1.537 0 0 1-.218-.236 1.339 1.339 0 0 1-.2-.439 1.204 1.204 0 0 1-.076-.523c.017-.158.047-.293.092-.405.045-.124.117-.242.218-.355a8.234 8.234 0 0 1 .067-1.283c.044-.36.125-.748.243-1.164a3.53 3.53 0 0 1 .527-1.115 3.14 3.14 0 0 1 .713-.768c.262-.197.53-.351.804-.464.274-.112.547-.188.821-.228.274-.04.539-.059.796-.059Z"/></svg>