<svg xmlns="http://www.w3.org/2000/svg" width="128" height="128" fill="none" class="design-iconfont" viewBox="0 0 40 40"><path fill="#0070FF" fill-opacity=".1" d="M20 0a20 20 0 1 0 0 40 20 20 0 1 0 0-40Z"/><path stroke="#0070FF" stroke-linecap="round" stroke-linejoin="round" stroke-width="1.6" d="M26.667 23.75v3.75c0 .46-.373.833-.834.833h-2.708m3.541-11.667v-4.167a.833.833 0 0 0-.833-.833H14.166a.833.833 0 0 0-.833.833v15c0 .46.373.834.833.834h2.5"/><path stroke="#0070FF" stroke-linecap="round" stroke-width="1.6" d="M16.667 16.666H22.5m-2.917 11.668 7.083-8.75M16.667 20H20"/></svg>