<svg xmlns="http://www.w3.org/2000/svg" width="128" height="128" fill="none" class="design-iconfont" viewBox="0 0 40 40"><path fill="#0070FF" fill-opacity=".1" d="M20 0a20 20 0 1 0 0 40 20 20 0 1 0 0-40Z"/><path stroke="#0070FF" stroke-linecap="round" stroke-linejoin="round" stroke-width="1.6" d="M27.084 12.5H12.917c-.69 0-1.25.56-1.25 1.25v12.5c0 .69.56 1.25 1.25 1.25h14.167c.69 0 1.25-.56 1.25-1.25v-12.5c0-.69-.56-1.25-1.25-1.25Zm-15.417 3.334h16.667M18.333 20H25m-6.667 3.334H25M15 20h.833M15 23.334h.833"/></svg>