<svg xmlns="http://www.w3.org/2000/svg" width="16" height="16" fill="none" class="design-iconfont" viewBox="0 0 14 14"><path stroke="#4E5969" stroke-linejoin="round" d="M12.25 2.334H1.75a.583.583 0 0 0-.583.583v8.167c0 .322.26.583.583.583h10.5a.583.583 0 0 0 .583-.583V2.917a.583.583 0 0 0-.583-.583Z"/><path stroke="#4E5969" stroke-linejoin="round" d="M4.958 7.292a1.167 1.167 0 1 0 0-2.333 1.167 1.167 0 0 0 0 2.333Z"/><path stroke="#4E5969" stroke-linecap="round" stroke-linejoin="round" d="M6.708 9.041a1.75 1.75 0 0 0-3.5 0M8.166 5.834H10.5M8.75 8.166h1.75"/></svg>