<svg xmlns="http://www.w3.org/2000/svg" width="128" height="128" class="icon" viewBox="0 0 1024 1024"><path fill="#666" d="M443.5.539H34.115A34.115 34.115 0 0 0 0 34.654V444.04a34.115 34.115 0 0 0 34.115 34.115H443.5a34.115 34.115 0 0 0 34.115-34.115V34.654A34.115 34.115 0 0 0 443.5.54zm-34.116 409.384H68.231V68.77h341.153zM443.5 546.385H34.115A34.115 34.115 0 0 0 0 580.5v409.385A34.115 34.115 0 0 0 34.115 1024H443.5a34.115 34.115 0 0 0 34.115-34.115V580.5a34.115 34.115 0 0 0-34.115-34.115zm-34.116 409.384H68.231V614.616h341.153zm351.389-487.85a34.115 34.115 0 0 0 48.443 0l204.693-204.692a34.115 34.115 0 0 0 0-48.443L809.216 10.09a34.115 34.115 0 0 0-48.443 0L556.08 214.784a34.115 34.115 0 0 0 0 48.443zm23.88-385.503 156.249 156.93-156.249 156.249-156.248-156.248zm204.693 463.969H579.96a34.115 34.115 0 0 0-34.115 34.115v409.385A34.115 34.115 0 0 0 579.96 1024h409.385a34.115 34.115 0 0 0 34.115-34.115V580.5a34.115 34.115 0 0 0-34.115-34.115zM955.23 955.769H614.077V614.616H955.23z"/></svg>