<svg xmlns="http://www.w3.org/2000/svg" width="128" height="128" fill="none" class="design-iconfont" viewBox="0 0 40 40"><path fill="#0070FF" fill-opacity=".1" d="M20 0a20 20 0 1 0 0 40 20 20 0 1 0 0-40Z"/><path stroke="#0070FF" stroke-linejoin="round" stroke-width="1.6" d="M26.2 11.666H13.799c-.49 0-.886.373-.886.833v15c0 .46.397.834.886.834h12.403c.489 0 .886-.373.886-.834v-15c0-.46-.397-.833-.886-.833Z"/><path stroke="#0070FF" stroke-linecap="round" stroke-linejoin="round" stroke-width="1.6" d="M19.066 15.836h5m-5 4.164h5m-5 4.168h5"/><path fill="#0070FF" fill-rule="evenodd" d="M16.25 16.667a.833.833 0 1 0 0-1.667.833.833 0 0 0 0 1.667Zm0 4.166a.833.833 0 1 0 0-1.667.833.833 0 0 0 0 1.667Zm0 4.167a.833.833 0 1 0 0-1.666.833.833 0 0 0 0 1.667Z" clip-rule="evenodd"/></svg>