<svg xmlns="http://www.w3.org/2000/svg" width="128" height="128" class="icon" viewBox="0 0 1024 1024"><path d="M221.8 237.65h430q20 0 20 20t-20 20h-430q-20 0-20-20t20-20Zm0 153.36h286q20 0 20 20t-20 20h-286q-20 0-20-20t20-20Z"/><path d="M845 715h-90v-90a20 20 0 0 0-40 0v110a20.06 20.06 0 0 0 20 20h110a20.06 20.06 0 0 0 20-20 20.06 20.06 0 0 0-20-20zM426.65 940.5a20 20 0 0 0-20-20H164a60.3 60.3 0 0 1-60-60v-696a60.3 60.3 0 0 1 60-60h560a60.3 60.3 0 0 1 60 60v226a20 20 0 0 0 20 20 20 20 0 0 0 20-20v-226c0-55-45-100-100-100H164c-55 0-100 45-100 100v696c0 55 45 100 100 100h242.65a20 20 0 0 0 20-20z"/><path d="M735 550a185 185 0 1 1-130.81 54.19A183.74 183.74 0 0 1 735 550m0-40c-124.26 0-225 100.74-225 225s100.74 225 225 225 225-100.74 225-225-100.74-225-225-225z"/></svg>