<svg xmlns="http://www.w3.org/2000/svg" width="128" height="128" class="icon" viewBox="0 0 1024 1024"><path d="M717.013 213.333h85.334a30.507 30.507 0 1 0 0-61.013h-85.334a30.507 30.507 0 1 0 0 61.013zm0 167.254h85.334a30.507 30.507 0 1 0 0-61.014h-85.334a30.507 30.507 0 1 0 0 61.014z"/><path d="M917.333 600.32a30.507 30.507 0 0 0 4.907-15.573V97.067a30.72 30.72 0 0 0-31.147-30.507h-448a30.72 30.72 0 0 0-31.146 30.507v225.28A215.893 215.893 0 0 0 211.2 535.68v7.68A214.4 214.4 0 0 0 53.333 748.587 216.533 216.533 0 0 0 271.787 961.92H702.08a244.907 244.907 0 0 0 247.253-241.493 237.44 237.44 0 0 0-32-120.107zM473.387 296.747h385.706v105.6h-256a21.333 21.333 0 0 0-3.626 0 219.52 219.52 0 0 0-126.934-77.227zM859.093 463.36v69.973a250.453 250.453 0 0 0-217.6-47.786 195.2 195.2 0 0 0-7.04-22.4zm0-335.36v108.373H473.387V128zM702.08 889.6H271.787A140.8 140.8 0 0 1 256 608.64a36.907 36.907 0 0 0 26.027-14.933 36.267 36.267 0 0 0 6.4-29.014 134.827 134.827 0 0 1-3.2-29.226 144 144 0 0 1 287.573-2.134v2.774a36.48 36.48 0 0 0 17.707 30.933 37.76 37.76 0 0 0 36.266 1.707 175.36 175.36 0 0 1 75.52-17.28 169.173 169.173 0 1 1 0 338.133z"/></svg>